<?xml version="1.0" encoding="UTF-8" standalone="no"?>
<svg
   viewBox="0 0 18.918125 2.1612549"
   height="2.1612549in"
   width="18.918125in"
   version="1.1"
   id="svg466"
   xmlns="http://www.w3.org/2000/svg"
   xmlns:svg="http://www.w3.org/2000/svg">
  <defs
     id="defs134">
    <style
       type="text/css"
       id="style132"><![CDATA[
	.string{stroke:rgb(0,0,0);stroke-width:0.2%;}
	.edge{stroke:rgb(0,0,0);stroke-width:0.2%;}
	.pfret{stroke:rgb(0,0,0);stroke-linecap:round;stroke-width:0.2%;}
	.nut{stroke:rgb(0,0,0);stroke-linecap:round;stroke-width:1%;}

]]></style>
  </defs>

  <path
     id="path8209"
     class="edge"
     d="M 0.14275331,0.29937773 18.917859,0.01775073"
     style="fill:none" />
  <path
     id="path8148"
     class="edge"
     d="M 0.14275331,1.8618777 18.917859,2.1435037"
     style="fill:none" />

  <path
     d="m 1.5458959,0.27832973 v 0.23546"
     class="pfret"
     id="path168" />
  <path
     d="m 2.8702858,0.25846473 v 0.239432"
     class="pfret"
     id="path170" />
  <path
     d="m 4.1203434,0.23971373 v 0.243182"
     class="pfret"
     id="path172" />
  <path
     d="m 5.3002406,0.22201473 v 0.246723"
     class="pfret"
     id="path174" />
  <path
     d="m 6.4139153,0.20530973 v 0.250064"
     class="pfret"
     id="path176" />
  <path
     d="m 7.4650842,0.18954273 v 0.253217"
     class="pfret"
     id="path178" />
  <path
     d="m 8.4572556,0.17465973 v 0.256194"
     class="pfret"
     id="path180" />
  <path
     d="m 9.3937406,0.16061273 v 0.259003"
     class="pfret"
     id="path182" />
  <path
     d="m 10.277665,0.14735373 v 0.261655"
     class="pfret"
     id="path184" />
  <path
     d="m 11.111978,0.13483873 v 0.264158"
     class="pfret"
     id="path186" />
  <path
     d="m 11.899465,0.12302673 v 0.26652"
     class="pfret"
     id="path188" />
  <path
     d="m 12.642754,0.11187773 v 0.26875"
     class="pfret"
     id="path190" />
  <path
     d="m 13.344325,0.10135373 v 0.270855"
     class="pfret"
     id="path192" />
  <path
     d="m 14.00652,0.09142073 v 0.272841"
     class="pfret"
     id="path194" />
  <path
     d="m 14.631549,0.08204573 v 0.274716"
     class="pfret"
     id="path196" />
  <path
     d="m 15.221497,0.07319573 v 0.276487"
     class="pfret"
     id="path198" />
  <path
     d="m 15.778335,0.06484373 v 0.278157"
     class="pfret"
     id="path200" />
  <path
     d="m 16.303919,0.05695973 v 0.279734"
     class="pfret"
     id="path202" />
  <path
     d="m 16.800005,0.04951873 v 0.281222"
     class="pfret"
     id="path204" />
  <path
     d="m 17.268247,0.04249473 v 0.282627"
     class="pfret"
     id="path206" />
  <path
     d="m 17.710209,0.03586573 v 0.283952"
     class="pfret"
     id="path208" />
  <path
     d="m 18.127366,0.02960773 v 0.285204"
     class="pfret"
     id="path210" />
  <path
     d="m 18.521109,0.02370173 v 0.286385"
     class="pfret"
     id="path212" />
  <path
     d="m 18.892754,0.01812773 v 0.2875"
     class="pfret"
     id="path214" />
  <path
     d="m 1.5458959,0.51378973 v 0.283419"
     class="pfret"
     id="path218" />
  <path
     d="m 2.8702858,0.49789673 v 0.291365"
     class="pfret"
     id="path220" />
  <path
     d="m 4.1203434,0.48289573 v 0.298866"
     class="pfret"
     id="path222" />
  <path
     d="m 5.3002406,0.46873773 v 0.305945"
     class="pfret"
     id="path224" />
  <path
     d="m 6.4139153,0.45537373 v 0.312627"
     class="pfret"
     id="path226" />
  <path
     d="m 7.4650842,0.44275973 v 0.318934"
     class="pfret"
     id="path228" />
  <path
     d="m 8.4572556,0.43085373 v 0.324887"
     class="pfret"
     id="path230" />
  <path
     d="m 9.3937406,0.41961573 v 0.330506"
     class="pfret"
     id="path232" />
  <path
     d="m 10.277665,0.40900873 v 0.335809"
     class="pfret"
     id="path234" />
  <path
     d="m 11.111978,0.39899673 v 0.340815"
     class="pfret"
     id="path236" />
  <path
     d="m 11.899465,0.38954673 v 0.34554"
     class="pfret"
     id="path238" />
  <path
     d="m 12.642754,0.38062773 v 0.35"
     class="pfret"
     id="path240" />
  <path
     d="m 13.344325,0.37220873 v 0.354209"
     class="pfret"
     id="path242" />
  <path
     d="m 14.00652,0.36426173 v 0.358183"
     class="pfret"
     id="path244" />
  <path
     d="m 14.631549,0.35676173 v 0.361933"
     class="pfret"
     id="path246" />
  <path
     d="m 15.221497,0.34968273 v 0.365472"
     class="pfret"
     id="path248" />
  <path
     d="m 15.778335,0.34300073 v 0.368813"
     class="pfret"
     id="path250" />
  <path
     d="m 16.303919,0.33669373 v 0.371967"
     class="pfret"
     id="path252" />
  <path
     d="m 16.800005,0.33074073 v 0.374943"
     class="pfret"
     id="path254" />
  <path
     d="m 17.268247,0.32512173 v 0.377753"
     class="pfret"
     id="path256" />
  <path
     d="m 17.710209,0.31981773 v 0.380405"
     class="pfret"
     id="path258" />
  <path
     d="m 18.127366,0.31481173 v 0.382908"
     class="pfret"
     id="path260" />
  <path
     d="m 18.521109,0.31008673 v 0.38527"
     class="pfret"
     id="path262" />
  <path
     d="m 18.892754,0.30562773 v 0.3875"
     class="pfret"
     id="path264" />
  <path
     d="M 1.5458959,0.79720873 V 1.0806277"
     class="pfret"
     id="path268" />
  <path
     d="M 2.8702858,0.78926173 V 1.0806277"
     class="pfret"
     id="path270" />
  <path
     d="M 4.1203434,0.78176173 V 1.0806277"
     class="pfret"
     id="path272" />
  <path
     d="M 5.3002406,0.77468273 V 1.0806277"
     class="pfret"
     id="path274" />
  <path
     d="M 6.4139153,0.76800073 V 1.0806277"
     class="pfret"
     id="path276" />
  <path
     d="M 7.4650842,0.76169373 V 1.0806277"
     class="pfret"
     id="path278" />
  <path
     d="M 8.4572556,0.75574073 V 1.0806277"
     class="pfret"
     id="path280" />
  <path
     d="M 9.3937406,0.75012173 V 1.0806277"
     class="pfret"
     id="path282" />
  <path
     d="M 10.277665,0.74481773 V 1.0806277"
     class="pfret"
     id="path284" />
  <path
     d="M 11.111978,0.73981173 V 1.0806277"
     class="pfret"
     id="path286" />
  <path
     d="M 11.899465,0.73508673 V 1.0806277"
     class="pfret"
     id="path288" />
  <path
     d="M 12.642754,0.73062773 V 1.0806277"
     class="pfret"
     id="path290" />
  <path
     d="M 13.344325,0.72641773 V 1.0806277"
     class="pfret"
     id="path292" />
  <path
     d="M 14.00652,0.72244473 V 1.0806277"
     class="pfret"
     id="path294" />
  <path
     d="M 14.631549,0.71869473 V 1.0806277"
     class="pfret"
     id="path296" />
  <path
     d="M 15.221497,0.71515473 V 1.0806277"
     class="pfret"
     id="path298" />
  <path
     d="M 15.778335,0.71181373 V 1.0806277"
     class="pfret"
     id="path300" />
  <path
     d="M 16.303919,0.70866073 V 1.0806277"
     class="pfret"
     id="path302" />
  <path
     d="M 16.800005,0.70568373 V 1.0806277"
     class="pfret"
     id="path304" />
  <path
     d="M 17.268247,0.70287473 V 1.0806277"
     class="pfret"
     id="path306" />
  <path
     d="M 17.710209,0.70022273 V 1.0806277"
     class="pfret"
     id="path308" />
  <path
     d="M 18.127366,0.69771973 V 1.0806277"
     class="pfret"
     id="path310" />
  <path
     d="M 18.521109,0.69535673 V 1.0806277"
     class="pfret"
     id="path312" />
  <path
     d="M 18.892754,0.69312773 V 1.0806277"
     class="pfret"
     id="path314" />
  <path
     d="m 1.5458959,1.0806277 v 0.283418"
     class="pfret"
     id="path318" />
  <path
     d="m 2.8702858,1.0806277 v 0.291365"
     class="pfret"
     id="path320" />
  <path
     d="m 4.1203434,1.0806277 v 0.298865"
     class="pfret"
     id="path322" />
  <path
     d="m 5.3002406,1.0806277 v 0.305944"
     class="pfret"
     id="path324" />
  <path
     d="m 6.4139153,1.0806277 v 0.312627"
     class="pfret"
     id="path326" />
  <path
     d="m 7.4650842,1.0806277 v 0.318934"
     class="pfret"
     id="path328" />
  <path
     d="m 8.4572556,1.0806277 v 0.324887"
     class="pfret"
     id="path330" />
  <path
     d="m 9.3937406,1.0806277 v 0.330505"
     class="pfret"
     id="path332" />
  <path
     d="m 10.277665,1.0806277 v 0.335809"
     class="pfret"
     id="path334" />
  <path
     d="m 11.111978,1.0806277 v 0.340815"
     class="pfret"
     id="path336" />
  <path
     d="m 11.899465,1.0806277 v 0.34554"
     class="pfret"
     id="path338" />
  <path
     d="m 12.642754,1.0806277 v 0.35"
     class="pfret"
     id="path340" />
  <path
     d="m 13.344325,1.0806277 v 0.354209"
     class="pfret"
     id="path342" />
  <path
     d="m 14.00652,1.0806277 v 0.358182"
     class="pfret"
     id="path344" />
  <path
     d="m 14.631549,1.0806277 v 0.361932"
     class="pfret"
     id="path346" />
  <path
     d="m 15.221497,1.0806277 v 0.365472"
     class="pfret"
     id="path348" />
  <path
     d="m 15.778335,1.0806277 v 0.368813"
     class="pfret"
     id="path350" />
  <path
     d="m 16.303919,1.0806277 v 0.371967"
     class="pfret"
     id="path352" />
  <path
     d="m 16.800005,1.0806277 v 0.374943"
     class="pfret"
     id="path354" />
  <path
     d="m 17.268247,1.0806277 v 0.377753"
     class="pfret"
     id="path356" />
  <path
     d="m 17.710209,1.0806277 v 0.380404"
     class="pfret"
     id="path358" />
  <path
     d="m 18.127366,1.0806277 v 0.382907"
     class="pfret"
     id="path360" />
  <path
     d="m 18.521109,1.0806277 v 0.38527"
     class="pfret"
     id="path362" />
  <path
     d="m 18.892754,1.0806277 v 0.3875"
     class="pfret"
     id="path364" />
  <path
     d="m 1.5458959,1.3640457 v 0.283419"
     class="pfret"
     id="path368" />
  <path
     d="m 2.8702858,1.3719927 v 0.291365"
     class="pfret"
     id="path370" />
  <path
     d="m 4.1203434,1.3794927 v 0.298866"
     class="pfret"
     id="path372" />
  <path
     d="m 5.3002406,1.3865717 v 0.305945"
     class="pfret"
     id="path374" />
  <path
     d="m 6.4139153,1.3932547 v 0.312627"
     class="pfret"
     id="path376" />
  <path
     d="m 7.4650842,1.3995617 v 0.318934"
     class="pfret"
     id="path378" />
  <path
     d="m 8.4572556,1.4055147 v 0.324887"
     class="pfret"
     id="path380" />
  <path
     d="m 9.3937406,1.4111327 v 0.330506"
     class="pfret"
     id="path382" />
  <path
     d="m 10.277665,1.4164367 v 0.335809"
     class="pfret"
     id="path384" />
  <path
     d="m 11.111978,1.4214427 v 0.340815"
     class="pfret"
     id="path386" />
  <path
     d="m 11.899465,1.4261677 v 0.34554"
     class="pfret"
     id="path388" />
  <path
     d="m 12.642754,1.4306277 v 0.35"
     class="pfret"
     id="path390" />
  <path
     d="m 13.344325,1.4348367 v 0.354209"
     class="pfret"
     id="path392" />
  <path
     d="m 14.00652,1.4388097 v 0.358183"
     class="pfret"
     id="path394" />
  <path
     d="m 14.631549,1.4425597 v 0.361933"
     class="pfret"
     id="path396" />
  <path
     d="m 15.221497,1.4460997 v 0.365472"
     class="pfret"
     id="path398" />
  <path
     d="m 15.778335,1.4494407 v 0.368814"
     class="pfret"
     id="path400" />
  <path
     d="m 16.303919,1.4525947 v 0.371967"
     class="pfret"
     id="path402" />
  <path
     d="m 16.800005,1.4555707 v 0.374944"
     class="pfret"
     id="path404" />
  <path
     d="m 17.268247,1.4583807 v 0.377752"
     class="pfret"
     id="path406" />
  <path
     d="m 17.710209,1.4610317 v 0.380405"
     class="pfret"
     id="path408" />
  <path
     d="m 18.127366,1.4635347 v 0.382908"
     class="pfret"
     id="path410" />
  <path
     d="m 18.521109,1.4658977 v 0.38527"
     class="pfret"
     id="path412" />
  <path
     d="m 18.892754,1.4681277 v 0.3875"
     class="pfret"
     id="path414" />

  <g
     id="g8391"
     transform="translate(11.47776,-11.410629)">
    <path
       d="m -11.335007,11.710007 v 0.23125"
       class="nut"
       id="path166" />
    <path
       d="m -11.335007,11.941257 v 0.275"
       class="nut"
       id="path216" />
    <path
       d="m -11.335007,12.216257 v 0.275"
       class="nut"
       id="path266" />
    <path
       d="m -11.335007,12.491257 v 0.275"
       class="nut"
       id="path316" />
    <path
       d="m -11.335007,12.766257 v 0.275"
       class="nut"
       id="path366" />
    <path
       d="m -11.335007,13.041257 v 0.23125"
       class="nut"
       id="path416" />
  </g>

  <path
     d="m 1.5458959,1.6474647 v 0.23546"
     class="pfret"
     id="path418" />
  <path
     d="m 2.8702858,1.6633577 v 0.239433"
     class="pfret"
     id="path420" />
  <path
     d="m 4.1203434,1.6783587 v 0.243182"
     class="pfret"
     id="path422" />
  <path
     d="m 5.3002406,1.6925167 v 0.246723"
     class="pfret"
     id="path424" />
  <path
     d="m 6.4139153,1.7058817 v 0.250063"
     class="pfret"
     id="path426" />
  <path
     d="m 7.4650842,1.7184957 v 0.253217"
     class="pfret"
     id="path428" />
  <path
     d="m 8.4572556,1.7304017 v 0.256193"
     class="pfret"
     id="path430" />
  <path
     d="m 9.3937406,1.7416387 v 0.259003"
     class="pfret"
     id="path432" />
  <path
     d="m 10.277665,1.7522457 v 0.261655"
     class="pfret"
     id="path434" />
  <path
     d="m 11.111978,1.7622577 v 0.264158"
     class="pfret"
     id="path436" />
  <path
     d="m 11.899465,1.7717077 v 0.26652"
     class="pfret"
     id="path438" />
  <path
     d="m 12.642754,1.7806277 v 0.26875"
     class="pfret"
     id="path440" />
  <path
     d="m 13.344325,1.7890457 v 0.270855"
     class="pfret"
     id="path442" />
  <path
     d="m 14.00652,1.7969927 v 0.272841"
     class="pfret"
     id="path444" />
  <path
     d="m 14.631549,1.8044927 v 0.274716"
     class="pfret"
     id="path446" />
  <path
     d="m 15.221497,1.8115717 v 0.276487"
     class="pfret"
     id="path448" />
  <path
     d="m 15.778335,1.8182547 v 0.278156"
     class="pfret"
     id="path450" />
  <path
     d="m 16.303919,1.8245617 v 0.279733"
     class="pfret"
     id="path452" />
  <path
     d="m 16.800005,1.8305147 v 0.281221"
     class="pfret"
     id="path454" />
  <path
     d="m 17.268247,1.8361327 v 0.282627"
     class="pfret"
     id="path456" />
  <path
     d="m 17.710209,1.8414367 v 0.283952"
     class="pfret"
     id="path458" />
  <path
     d="m 18.127366,1.8464427 v 0.285204"
     class="pfret"
     id="path460" />
  <path
     d="m 18.521109,1.8511677 v 0.286385"
     class="pfret"
     id="path462" />
  <path
     d="m 18.892754,1.8556277 v 0.2875"
     class="pfret"
     id="path464" />



  <path
     id="path8206"
     class="string"
     d="M 0.14275331,0.39312773 18.917859,0.11150073"
     style="fill:none" />
  <path
     id="path8187"
     class="string"
     d="M 0.14275331,0.66812673 18.917859,0.49915173"
     style="fill:none" />
  <path
     id="path8178"
     class="string"
     d="M 0.14275331,0.94312773 18.917859,0.88680173"
     style="fill:none" />
  <path
     id="path8172"
     class="string"
     d="M 0.14275331,1.2181277 18.917859,1.2744477"
     style="fill:none" />
  <path
     id="path8166"
     class="string"
     d="M 0.14275331,1.4931267 18.917859,1.6621037"
     style="fill:none" />
  <path
     id="path8160"
     class="string"
     d="M 0.14275331,1.7681277 18.917859,2.0497537"
     style="fill:none" />





</svg>
